<mxfile host="app.diagrams.net" modified="2023-07-25T09:28:15.271Z" agent="Mozilla/5.0 (Windows NT 10.0; Win64; x64) AppleWebKit/537.36 (KHTML, like Gecko) Chrome/115.0.0.0 Safari/537.36" version="21.6.2" etag="cyZjoSv4fAYNC_uY9r3k" type="github">
  <diagram name="Страница 1" id="-EFIJip1mevxRpC9k0wb">
    <mxGraphModel>
      <root>
        <mxCell id="0" />
        <mxCell id="1" parent="0" />
      </root>
    </mxGraphModel>
  </diagram>
</mxfile>
